<?xml version="1.0" encoding="UTF-8"?>
<svg version="1.1" xmlns="http://www.w3.org/2000/svg" width="256" height="256">
<path d="M0 0 C1.57515209 1.31836259 3.13738071 2.65229298 4.6875 4 C6.08935547 5.20269531 6.08935547 5.20269531 7.51953125 6.4296875 C12.72372793 10.98608907 12.72372793 10.98608907 14.6875 13 C14.6875 13.66 14.6875 14.32 14.6875 15 C15.3475 15 16.0075 15 16.6875 15 C38.09615812 40.47081376 47.99484443 70.7855542 45.27172852 104.00756836 C42.25207821 134.56699326 26.52694442 162.37505642 3.00683594 181.87402344 C-21.99608265 201.97933366 -51.91847441 209.60283864 -83.77734375 206.78173828 C-88.69841026 206.17513368 -93.50377421 205.19893629 -98.3125 204 C-98.9832959 203.83371094 -99.6540918 203.66742188 -100.34521484 203.49609375 C-119.90454417 198.44369584 -135.71292169 187.7911326 -150.3125 174 C-151.06273437 173.31421875 -151.81296875 172.6284375 -152.5859375 171.921875 C-172.06463846 153.46836882 -183.73284652 126.10050613 -184.6484375 99.37109375 C-184.829368 85.45733981 -184.36653647 72.36744745 -180.3125 59 C-180.10351074 58.3105127 -179.89452148 57.62102539 -179.67919922 56.91064453 C-172.05795023 32.79096141 -154.8873674 7.40684861 -132.3125 -5 C-131.6525 -5 -130.9925 -5 -130.3125 -5 C-130.3125 -5.66 -130.3125 -6.32 -130.3125 -7 C-87.46126163 -28.03508307 -39.33883748 -30.67819419 0 0 Z M-23.98706055 41.47436523 C-24.89374985 41.80052826 -25.80043915 42.12669128 -26.73460388 42.46273804 C-28.20208824 43.00518661 -28.20208824 43.00518661 -29.69921875 43.55859375 C-30.73276993 43.93424469 -31.76632111 44.30989563 -32.83119202 44.69692993 C-36.22432084 45.93438626 -39.61238128 47.18504453 -43 48.4375 C-44.15898804 48.86328339 -45.31797607 49.28906677 -46.51208496 49.72775269 C-67.4942276 57.44028842 -88.26009769 65.62112474 -108.90917969 74.18164062 C-112.35554971 75.60882473 -115.81002769 77.01416178 -119.27124023 78.40492249 C-122.07952312 79.53371867 -124.88307701 80.67415486 -127.6875 81.8125 C-128.63850586 82.19092041 -129.58951172 82.56934082 -130.56933594 82.95922852 C-134.92279581 84.7489934 -138.28121279 86.23205919 -141.3125 90 C-140.75724088 91.97682184 -140.75724088 91.97682184 -139.3125 94 C-136.40081543 95.47927323 -136.40081543 95.47927323 -132.87890625 96.578125 C-132.24516586 96.79442566 -131.61142548 97.01072632 -130.95848083 97.23358154 C-129.62007727 97.68739212 -128.27925426 98.13412059 -126.9362793 98.57421875 C-124.8811776 99.2479747 -122.83394247 99.94219823 -120.78710938 100.640625 C-114.19306377 103.07220539 -114.19306377 103.07220539 -107.3125 104 C-107.22758301 104.54060059 -107.14266602 105.08120117 -107.05517578 105.63818359 C-105.59168827 113.90308129 -102.89332986 121.70710538 -100.1875 129.625 C-99.71428045 131.02454925 -99.24162003 132.42428767 -98.76953125 133.82421875 C-97.62361799 137.21834868 -96.47018504 140.60986448 -95.3125 144 C-91.22953313 143.3125895 -89.43962117 142.5865958 -86.625 139.5 C-83.4572619 136.07238095 -83.4572619 136.07238095 -81.3125 135 C-81.3125 134.34 -81.3125 133.68 -81.3125 133 C-80.714375 132.731875 -80.11625 132.46375 -79.5 132.1875 C-77.25739213 131.1305255 -77.25739213 131.1305255 -75.8125 129.3125 C-75.07 128.6628125 -75.07 128.6628125 -74.3125 128 C-70.79362928 128.42683125 -68.60186945 130.04973585 -65.828125 132.16796875 C-64.97476563 132.81443359 -64.12140625 133.46089844 -63.2421875 134.12695312 C-62.35789062 134.80693359 -61.47359375 135.48691406 -60.5625 136.1875 C-59.69367188 136.84814453 -58.82484375 137.50878906 -57.9296875 138.18945312 C-50.78761255 143.62107619 -50.78761255 143.62107619 -48.02490234 145.82446289 C-47.3283252 146.37223389 -46.63174805 146.92000488 -45.9140625 147.484375 C-45.30900879 147.9700293 -44.70395508 148.45568359 -44.08056641 148.95605469 C-42.09846518 150.32288678 -42.09846518 150.32288678 -38.4375 150.0625 C-35.04870896 149.26428339 -35.04870896 149.26428339 -33.3125 146 C-32.67388002 143.94089623 -32.67388002 143.94089623 -32.21850586 141.63183594 C-32.02717072 140.74102325 -31.83583557 139.85021057 -31.63870239 138.93240356 C-31.43695404 137.95955414 -31.23520569 136.98670471 -31.02734375 135.984375 C-30.81012665 134.9608493 -30.59290955 133.93732361 -30.36911011 132.88278198 C-29.6553804 129.50668951 -28.95210893 126.12852697 -28.25 122.75 C-27.76066133 120.41455067 -27.27132213 118.07910145 -26.78198242 115.74365234 C-23.44057089 99.72814087 -20.22730747 83.68846599 -17.125 67.625 C-16.83107864 66.11504456 -16.83107864 66.11504456 -16.53121948 64.57458496 C-15.97930375 61.73058395 -15.43542919 58.88517702 -14.89453125 56.0390625 C-14.7325827 55.20696259 -14.57063416 54.37486267 -14.40377808 53.51754761 C-13.61287996 49.29538028 -13.03345624 45.31863486 -13.3125 41 C-14.3455248 39.74783598 -14.3455248 39.74783598 -16.58283997 39.84535217 C-19.35896174 40.00263227 -21.38332936 40.52608751 -23.98706055 41.47436523 Z " fill="#FD4271" transform="translate(196.3125,34)"/>
</svg>
